# Blender v2.93.4 OBJ File: ''
# www.blender.org
mtllib camera.mtl
o Cube
v 0.324337 0.647899 0.404776
v 0.324337 0.647899 0.051888
v 0.008785 -0.000776 0.233111
v 0.008785 -0.000776 0.223553
v -0.324337 0.647899 0.404776
v -0.324337 0.647899 0.051888
v -0.008785 -0.000776 0.233111
v -0.008785 -0.000776 0.223553
v 0.282660 0.647899 0.074561
v -0.282660 0.647899 0.074561
v 0.282660 0.647899 0.382103
v -0.282660 0.647899 0.382103
v 0.185074 0.599512 0.143145
v -0.185074 0.599512 0.143145
v 0.185074 0.599512 0.344511
v -0.185074 0.599512 0.344511
v -0.299608 0.597063 0.065341
v 0.299608 0.632786 0.404873
v -0.299608 0.632786 0.404873
v 0.299608 0.597063 0.065341
v -0.001928 0.643120 0.480509
v -0.002087 0.648652 0.480750
v 0.002087 0.648652 0.480750
v 0.001928 0.643120 0.480509
vt 0.625000 0.519592
vt 0.875000 0.519592
vt 0.875000 0.750000
vt 0.625000 0.750000
vt 0.375000 0.750000
vt 0.625000 1.000000
vt 0.375000 1.000000
vt 0.375000 0.230408
vt 0.625000 0.230408
vt 0.625000 0.250000
vt 0.375000 0.250000
vt 0.125000 0.519592
vt 0.375000 0.519592
vt 0.125000 0.750000
vt 0.875000 0.500000
vt 0.625000 0.500000
vt 0.625000 0.500000
vt 0.875000 0.500000
vt 0.625000 0.500000
vt 0.875000 0.500000
vt 0.375000 0.500000
vt 0.375000 0.500000
vt 0.625000 0.250000
vt 0.375000 0.250000
vt 0.125000 0.500000
vt 0.125000 0.500000
vt 0.375000 0.500000
vt 0.375000 0.250000
vt 0.625000 0.250000
vt 0.125000 0.500000
vt 0.375000 0.000000
vt 0.625000 0.000000
vt 0.875000 0.500000
vt 0.625000 0.500000
vt 0.875000 0.519592
vt 0.625000 0.519592
vt 0.625000 0.230408
vt 0.625000 0.250000
vn 0.0000 -0.2617 0.9652
vn 0.0000 -1.0000 0.0000
vn -0.8027 -0.5956 0.0307
vn 0.0000 -0.2558 -0.9667
vn 0.9032 -0.4271 0.0437
vn 0.0000 1.0000 0.0000
vn 0.0000 0.6135 -0.7897
vn -0.4442 0.8959 0.0000
vn 0.4442 0.8959 0.0000
vn 0.0000 0.8171 0.5765
vn 0.8027 -0.5956 0.0307
vn -0.9032 -0.4271 0.0437
vn 0.0000 1.0000 -0.0099
vn 0.0000 -0.0437 0.9990
vn 0.0000 -0.9908 0.1354
vn -0.2237 -0.2762 0.9347
vn 0.2237 -0.2762 0.9347
usemtl Material
s off
f 18/1/1 19/2/1 7/3/1 3/4/1
f 4/5/2 3/4/2 7/6/2 8/7/2
f 17/8/3 19/9/3 5/10/3 6/11/3
f 17/12/4 20/13/4 4/5/4 8/14/4
f 20/13/5 18/1/5 3/4/5 4/5/5
f 5/15/6 1/16/6 11/17/6 12/18/6
f 12/18/7 11/17/7 15/19/7 16/20/7
f 1/16/6 2/21/6 9/22/6 11/17/6
f 6/11/6 5/10/6 12/23/6 10/24/6
f 2/21/6 6/25/6 10/26/6 9/22/6
f 13/27/6 14/28/6 16/20/6 15/19/6
f 11/17/8 9/22/8 13/27/8 15/19/8
f 10/24/9 12/23/9 16/29/9 14/28/9
f 9/22/10 10/26/10 14/30/10 13/27/10
f 2/21/11 1/16/11 18/1/11 20/13/11
f 6/25/4 2/21/4 20/13/4 17/12/4
f 8/31/12 7/32/12 19/9/12 17/8/12
f 1/16/13 5/15/13 22/33/13 23/34/13
f 23/34/14 22/33/14 21/35/14 24/36/14
f 19/2/15 18/1/15 24/36/15 21/35/15
f 5/10/16 19/9/16 21/37/16 22/38/16
f 18/1/17 1/16/17 23/34/17 24/36/17
